<?xml version="1.0" standalone="no"?>
<!DOCTYPE svg PUBLIC "-//W3C//DTD SVG 20010904//EN"
 "http://www.w3.org/TR/2001/REC-SVG-20010904/DTD/svg10.dtd">
<svg version="1.0" xmlns="http://www.w3.org/2000/svg"
 width="2000.000000pt" height="2000.000000pt" viewBox="0 0 2000.000000 2000.000000"
 preserveAspectRatio="xMidYMid meet">

<g transform="translate(0.000000,2000.000000) scale(0.100000,-0.100000)"
fill="#000000" stroke="none">
<path d="M0 10000 l0 -10000 10000 0 10000 0 0 10000 0 10000 -10000 0 -10000
0 0 -10000z m9432 6981 c232 -23 330 -39 678 -107 287 -56 838 -229 1215 -381
706 -286 1218 -540 1870 -930 261 -156 493 -319 795 -561 303 -242 538 -490
675 -712 111 -180 155 -310 157 -465 2 -168 -50 -284 -186 -419 -97 -95 -388
-250 -641 -341 -27 -10 -54 -22 -58 -25 -5 -4 107 -66 249 -136 l258 -129
-139 -3 c-81 -1 -144 -7 -152 -14 -9 -7 -13 -41 -13 -114 l0 -103 30 -16 c17
-9 55 -15 95 -15 l65 0 0 -260 0 -260 -65 0 c-40 0 -78 -6 -96 -16 l-31 -15 4
-104 c2 -68 7 -109 16 -117 10 -10 82 -12 340 -10 288 3 329 5 340 20 19 25
16 206 -4 222 -8 8 -51 15 -94 18 l-79 5 -3 91 c-2 50 -2 166 0 259 l3 167 72
0 c40 0 78 4 86 9 17 11 84 -30 211 -127 405 -313 658 -638 764 -982 34 -108
59 -320 51 -420 -33 -399 -203 -725 -600 -1149 -433 -464 -997 -861 -2009
-1415 -813 -445 -1357 -659 -2018 -795 -718 -148 -1570 -132 -2368 45 -113 25
-261 61 -330 80 -129 36 -516 174 -675 240 -145 60 -539 263 -684 353 -303
186 -612 430 -891 701 -115 112 -165 153 -240 196 -537 313 -775 484 -1175
845 -439 396 -761 803 -1039 1314 -170 312 -314 743 -361 1077 -41 299 -41
555 1 868 59 438 264 911 582 1349 139 191 206 267 441 500 460 454 978 807
1706 1162 304 148 593 261 975 382 419 133 839 214 1295 252 230 19 723 12
977 -14z"/>
<path d="M9515 12776 c-225 -44 -369 -162 -427 -351 -31 -99 -31 -253 0 -351
71 -231 282 -364 575 -364 327 0 537 139 603 400 22 87 15 250 -15 335 -56
158 -185 271 -366 320 -81 23 -281 28 -370 11z m293 -265 c183 -94 171 -457
-18 -534 -89 -37 -217 -25 -285 27 -98 75 -128 289 -59 416 27 50 79 94 130
110 52 17 184 6 232 -19z"/>
<path d="M12075 12775 c-208 -39 -329 -142 -342 -293 -13 -147 68 -247 246
-302 35 -11 132 -31 215 -45 192 -32 223 -41 242 -70 38 -58 -50 -109 -184
-107 -122 2 -158 15 -218 78 l-52 54 -125 0 c-143 0 -157 -6 -157 -68 0 -85
82 -193 187 -245 96 -49 174 -62 358 -62 188 0 249 11 360 66 112 55 185 156
185 257 0 85 -18 131 -75 188 -64 64 -147 97 -310 124 -227 38 -250 43 -282
55 -47 20 -60 51 -36 84 26 35 73 50 160 50 91 1 145 -19 174 -65 11 -19 29
-39 39 -44 27 -15 263 -13 278 2 17 17 15 88 -3 131 -43 103 -175 187 -339
216 -78 14 -233 12 -321 -4z"/>
<path d="M4650 12768 c-25 -9 -30 -32 -32 -132 -2 -133 -19 -125 300 -128
l266 -3 -185 -170 c-101 -94 -213 -195 -248 -225 -35 -30 -83 -79 -107 -108
l-44 -54 0 -92 c0 -145 -56 -132 522 -128 579 4 528 -8 528 127 0 67 -4 87
-19 106 l-19 24 -277 3 c-152 2 -275 6 -273 10 3 7 152 146 297 276 140 125
252 238 261 262 15 37 12 197 -2 217 -12 14 -60 16 -481 19 -258 2 -477 0
-487 -4z"/>
<path d="M7310 12773 c-235 -3 -266 -5 -277 -20 -9 -11 -13 -52 -13 -115 l0
-97 30 -16 c17 -9 55 -15 95 -15 l65 0 0 -259 0 -258 -81 -6 c-45 -4 -88 -12
-95 -18 -17 -14 -20 -173 -4 -213 l10 -26 334 0 c321 0 336 1 346 19 5 11 10
63 10 115 0 113 -3 117 -117 124 l-73 5 0 258 0 259 65 0 c40 0 78 6 95 15
l30 16 0 97 c0 63 -4 104 -13 115 -15 22 -50 23 -407 20z"/>
<path d="M6132 12758 c-35 -45 -444 -973 -440 -1000 3 -23 6 -23 150 -26 172
-3 168 -5 215 109 l28 69 234 -2 234 -3 29 -69 c45 -110 36 -106 220 -106
l158 0 0 30 c0 17 -4 38 -10 48 -5 9 -29 62 -53 117 -204 465 -344 776 -364
808 l-23 37 -184 0 c-135 0 -186 -3 -194 -12z m252 -445 c31 -77 56 -146 56
-152 0 -11 -231 -17 -242 -6 -3 3 18 63 47 134 56 135 74 175 80 169 2 -2 29
-67 59 -145z"/>
<path d="M7900 12751 c-6 -13 -10 -188 -10 -501 0 -313 4 -488 10 -501 10 -17
23 -19 149 -19 103 0 141 3 150 13 6 9 12 83 13 198 l3 184 84 3 c90 3 127 -6
159 -41 11 -12 57 -91 102 -175 46 -84 92 -159 104 -167 16 -12 56 -15 174
-15 135 0 153 2 159 17 7 18 -63 160 -152 309 -53 89 -134 180 -172 195 -32
12 -29 20 15 48 20 13 54 44 76 70 43 52 206 346 206 372 0 26 -20 29 -175 29
-121 0 -146 -3 -164 -17 -11 -10 -58 -88 -104 -173 -46 -85 -96 -163 -110
-174 -21 -15 -43 -19 -114 -20 l-88 -1 -5 180 c-3 99 -9 186 -13 193 -6 9 -47
12 -147 12 -127 0 -140 -2 -150 -19z"/>
<path d="M10467 12752 c-15 -16 -17 -53 -17 -313 0 -162 5 -323 11 -359 28
-178 139 -295 331 -347 89 -25 328 -25 418 0 175 47 285 150 324 303 13 50 16
123 16 379 0 199 -4 323 -10 336 -10 17 -22 19 -148 19 -94 0 -142 -4 -150
-12 -9 -9 -12 -89 -12 -299 0 -157 -5 -310 -10 -339 -12 -64 -47 -113 -100
-140 -49 -25 -169 -29 -221 -7 -42 17 -93 74 -108 120 -8 23 -13 144 -14 346
-2 265 -4 313 -17 321 -8 5 -74 10 -146 10 -114 0 -133 -2 -147 -18z"/>
<path d="M12959 12753 c-11 -13 -14 -105 -14 -504 0 -455 1 -489 18 -506 15
-15 36 -18 148 -18 118 0 132 2 145 19 11 16 14 60 14 204 l0 185 101 -5 c78
-4 106 -9 126 -24 14 -11 61 -85 104 -164 42 -80 90 -160 106 -178 28 -33 30
-34 129 -39 55 -3 126 -3 157 1 55 7 57 8 57 38 0 40 -164 337 -222 403 -24
27 -62 61 -86 76 l-44 28 39 24 c22 14 57 45 79 70 54 61 216 364 209 388 -6
18 -19 19 -164 19 -193 0 -166 21 -304 -238 -76 -141 -91 -151 -224 -152 l-63
0 0 176 c0 102 -4 183 -10 195 -10 17 -23 19 -149 19 -117 0 -141 -3 -152 -17z"/>
</g>
</svg>
